{"asset":{"version":"2.0","generator":"arcane-mesh-fixtures"},"meshes":[{"name":"NestedChildMesh","primitives":[{"attributes":{"POSITION":0,"NORMAL":1},"indices":2,"mode":4}]}],"nodes":[{"name":"NestedParent","translation":[1,0,3],"rotation":[0,0,0,1],"scale":[0.5,1,0.5],"children":[1]},{"name":"NestedChild","translation":[0,0,0],"rotation":[0,0,0,1],"scale":[2,1,2],"mesh":0}],"scenes":[{"nodes":[0]}],"scene":0,"buffers":[{"uri":"nested.bin","byteLength":108}],"bufferViews":[{"buffer":0,"byteOffset":0,"byteLength":48,"target":34962},{"buffer":0,"byteOffset":48,"byteLength":48,"target":34962},{"buffer":0,"byteOffset":96,"byteLength":12,"target":34963}],"accessors":[{"bufferView":0,"componentType":5126,"count":4,"type":"VEC3","min":[0,0,0],"max":[1,0,1]},{"bufferView":1,"componentType":5126,"count":4,"type":"VEC3"},{"bufferView":2,"componentType":5123,"count":6,"type":"SCALAR","min":[0],"max":[3]}]}
